<svg width="1313" height="663" viewBox="0 0 1313 663" fill="none" xmlns="http://www.w3.org/2000/svg">
<path d="M1304.66 515.601C1291.01 563.918 1257.76 598.275 1210.92 621.446C1164.05 644.636 1103.63 656.592 1035.87 660.044C900.347 666.949 735.879 639.823 592.807 601.145C445.787 561.399 285.308 498.125 168.693 419.822C110.382 380.669 63.1281 337.818 33.9801 292.354C4.85412 246.925 -6.16543 198.945 7.83502 149.37C21.8355 99.7942 56.3251 64.6665 104.912 41.184C153.536 17.6838 216.224 5.88088 286.402 3.0135C426.75 -2.72094 596.621 27.297 742.713 70.3281C884.882 112.204 1039.24 175.118 1151.13 251.893C1207.08 290.283 1252.32 332.077 1280.14 376.359C1307.93 420.606 1318.31 467.284 1304.66 515.601Z" stroke="#76A8D3" stroke-width="3"/>
</svg>
