<svg width="59" height="60" viewBox="0 0 59 60" fill="none" xmlns="http://www.w3.org/2000/svg">
<rect width="58.6538" height="59.6364" fill="black"/>
<rect x="27.9395" y="28.0112" width="3.75" height="3.75" fill="white"/>
<path d="M13 36.6364V23H18.38C19.4098 23 20.2887 23.1842 21.0167 23.5526C21.7491 23.9166 22.3062 24.4338 22.6879 25.104C23.0741 25.7699 23.2672 26.5534 23.2672 27.4545C23.2672 28.36 23.0719 29.139 22.6813 29.7915C22.2907 30.4396 21.7247 30.9368 20.9834 31.283C20.2465 31.6293 19.3543 31.8024 18.3067 31.8024H14.7045V29.4853H17.8406C18.3911 29.4853 18.8483 29.4098 19.2123 29.2589C19.5763 29.108 19.847 28.8816 20.0246 28.5797C20.2066 28.2779 20.2976 27.9028 20.2976 27.4545C20.2976 27.0017 20.2066 26.6199 20.0246 26.3092C19.847 25.9985 19.574 25.7632 19.2056 25.6034C18.8416 25.4392 18.3822 25.3571 17.8273 25.3571H15.8831V36.6364H13ZM20.3642 30.4308L23.7533 36.6364H20.5706L17.2547 30.4308H20.3642Z" fill="white"/>
<path d="M36.625 36.6364V23H45.6538V25.377H39.5081V28.6263H45.0545V31.0034H39.5081V36.6364H36.625Z" fill="white"/>
</svg>
