<svg width="929" height="1033" viewBox="0 0 929 1033" fill="none" xmlns="http://www.w3.org/2000/svg">
<path fill-rule="evenodd" clip-rule="evenodd" d="M151.467 108.371C195.335 9.22853 474.241 27.3739 560.058 156.076C645.875 284.778 547.798 570.706 459.882 570.706C371.966 570.706 402.986 417 335.716 320.963C268.446 224.925 107.6 207.513 151.467 108.371Z" fill="url(#paint0_radial_458_153)"/>
<path fill-rule="evenodd" clip-rule="evenodd" d="M-97.6494 631.151C-72.7858 677.725 -29.2217 642.624 26.7877 593.902C82.7971 545.18 153.81 497.078 128.946 450.503C104.082 403.928 14.7543 409.878 -41.255 458.6C-97.2644 507.322 -122.513 584.576 -97.6494 631.151Z" fill="#252525" stroke="#252525" stroke-width="3"/>
<path fill-rule="evenodd" clip-rule="evenodd" d="M518.611 916.326C554.046 916.326 593.138 882.397 593.138 839.163C593.138 795.929 554.046 762 518.611 762C483.176 762 469.999 811.478 469.999 846.937C469.999 882.397 483.176 916.326 518.611 916.326Z" fill="#363636"/>
<path fill-rule="evenodd" clip-rule="evenodd" d="M244.711 468.447C253.669 473.865 262.471 476.483 266.602 475.414C276.962 472.734 277.915 434.703 269.899 419.71C261.883 404.717 220.673 398.182 218.596 427.888C217.875 438.198 222.189 447.399 228.563 454.907L217.134 508.363H250.334L244.711 468.447Z" fill="#B28B67"/>
<path fill-rule="evenodd" clip-rule="evenodd" d="M226.012 461.594C221.845 442.992 209.974 430.312 211.787 421.997C213.6 413.683 221.451 411.657 221.451 411.657C221.451 411.657 225.512 395.173 247.644 397.634C269.776 400.096 283.284 409.318 277.45 429.613C272.088 429.613 265.614 427.667 256.663 431.001C252.403 432.588 250.569 440.843 250.569 440.843H246.523C246.523 440.843 240.634 431.046 234.91 433.643C229.186 436.239 232.308 446.257 232.308 446.257L230.315 461.594H226.012Z" fill="#191847"/>
<path fill-rule="evenodd" clip-rule="evenodd" d="M157.127 681.875H263.996L277.999 854H118.916L157.127 681.875Z" fill="#C5CFD6"/>
<path fill-rule="evenodd" clip-rule="evenodd" d="M157.127 681.875H189.996L209.668 854H118.916L157.127 681.875Z" fill="black" fill-opacity="0.1"/>
<path fill-rule="evenodd" clip-rule="evenodd" d="M322.714 715.976C310.705 741.533 291.939 803.573 291.939 803.573L307.871 810.877C307.871 810.877 348.293 745.662 372.997 701.082C371.846 711.118 370.674 722.416 369.587 734.294C367.013 762.431 369.586 823.221 370.971 840.782C371.841 851.818 386.785 849.506 388.18 840.753C388.417 839.27 389.38 834.066 390.816 826.3C397.862 788.221 416.301 688.563 416.334 664.161C416.347 654.342 397.23 645.521 385.836 652.387C378.009 644.007 363.196 639.177 354.687 653.019C349.277 661.82 336.423 686.803 322.714 715.976Z" fill="#B28B67"/>
<path fill-rule="evenodd" clip-rule="evenodd" d="M293.078 780.605L347.758 650.626C360.857 629.482 397.584 654.928 393.117 667.192C382.975 695.034 331.396 785.17 328.375 793.465L293.078 780.605Z" fill="#1F28CF"/>
<path fill-rule="evenodd" clip-rule="evenodd" d="M293.646 795.278C292.967 794.321 291.626 794.098 290.724 794.844C288.489 796.695 284.685 800.027 283.394 802.27C281.523 805.522 279.014 812.386 279.014 812.386C282.773 814.564 346.583 851.532 346.583 851.532C346.583 851.532 354.244 844.32 348.97 840.336C343.697 836.352 340.266 833.616 340.266 833.616L316.712 801.052C316.381 800.595 315.74 800.501 315.294 800.846L310.134 804.832C310.134 804.832 303.466 804.248 300.182 802.345C297.966 801.062 295.207 797.476 293.646 795.278Z" fill="#E4E4E4"/>
<path fill-rule="evenodd" clip-rule="evenodd" d="M370.548 831.844C369.481 831.356 368.206 831.835 367.797 832.934C366.783 835.659 365.15 840.452 365.15 843.042C365.15 846.796 366.397 854 366.397 854C370.737 854 444.419 854 444.419 854C444.419 854 447.46 843.911 440.908 843.106C434.355 842.302 430.021 841.654 430.021 841.654L393.399 825.271C392.884 825.04 392.28 825.282 392.066 825.804L389.584 831.844C389.584 831.844 383.518 834.684 379.726 834.684C377.169 834.684 372.996 832.964 370.548 831.844Z" fill="#E4E4E4"/>
<path fill-rule="evenodd" clip-rule="evenodd" d="M420.165 674.148C420.165 711.026 402.712 797.047 402.701 805.167L365.15 805.196C365.15 805.196 373.394 690.062 370.997 688.822C368.599 687.581 272.71 698.429 243.951 698.429C202.481 698.429 185.325 672.187 183.933 623.575H266.084C282.811 625.371 370.059 643.03 402.461 649.1C416.333 651.699 420.165 663.989 420.165 674.148Z" fill="#2B44FF"/>
<path fill-rule="evenodd" clip-rule="evenodd" d="M376.715 465.279L324.281 481.074L337.668 503.452L378.436 479.377C397.467 478.24 406.459 476.356 405.412 473.727C404.529 471.509 402.427 471.132 400.492 470.784C398.984 470.513 397.576 470.26 396.924 469.169C395.435 466.679 400.656 460.197 405.873 454.259C411.09 448.32 406.915 448.043 404.394 448.52C395.723 452.052 386.496 457.639 376.715 465.279ZM363.774 606.351L319.648 573.837L309.894 598.033L353.59 616.215C365.948 630.782 372.858 636.854 374.321 634.432C375.554 632.39 374.59 630.479 373.702 628.718C373.01 627.347 372.365 626.067 372.84 624.888C373.926 622.195 382.227 622.479 390.093 623.086C397.959 623.693 395.667 620.181 393.77 618.446C385.741 613.623 375.742 609.592 363.774 606.351Z" fill="#B28B67"/>
<path fill-rule="evenodd" clip-rule="evenodd" d="M251.109 486.274C275.139 531.234 309.886 565.699 360.261 601.526L341.187 623.107C284.942 602.133 255.257 589.478 240.679 547C237.021 536.339 234.464 502.353 232.27 484.472L251.109 486.274Z" fill="#2026A2"/>
<path fill-rule="evenodd" clip-rule="evenodd" d="M183.934 636.068H290.45C290.45 636.068 254.259 525.309 253.474 484.031C253.447 482.628 250.865 480.156 249.723 480.48C237.192 484.031 222.905 477.824 222.905 477.824C197.653 518.577 188.92 568.751 183.934 636.068Z" fill="#F2F2F2"/>
<path fill-rule="evenodd" clip-rule="evenodd" d="M249.623 539.998C266.259 611.605 265.492 670.223 228.764 670.223H171.969C162.949 609.394 186.656 525.052 208.634 482.511C209.474 480.887 211.26 477.824 215.469 477.824H231.972C231.979 477.846 231.987 477.868 231.994 477.89C236.96 477.931 242.429 478.113 248.352 478.31C278.842 479.326 321.356 480.742 369.193 465.331L374.834 493.612C331.655 521.477 287.934 543.063 249.623 539.998Z" fill="#2E71E9"/>
<path d="M797.447 843.753C774.075 882.651 736.913 904.722 690.548 913.813C644.143 922.913 588.574 918.994 528.602 905.903C408.664 879.722 271.539 816.957 155.832 749.186C36.9317 679.545 -88.1188 586.169 -171.303 490.105C-212.898 442.07 -243.954 393.445 -258.587 346.851C-273.207 300.296 -271.421 255.833 -247.44 215.922C-223.459 176.01 -185.039 153.559 -137.069 144.612C-89.0595 135.658 -31.5462 140.25 30.3936 154.425C154.266 182.773 295.42 249.349 412.729 321.637C526.889 391.984 646.684 483.591 726.107 577.199C765.821 624.006 795.37 671.23 809.121 716.476C822.86 761.681 820.819 804.855 797.447 843.753Z" stroke="#76A8D3" stroke-width="3"/>
<path d="M462 142C453.163 142 446 149.163 446 158V142H462Z" fill="white"/>
<path d="M446 158C446 149.163 438.837 142 430 142H446V158Z" fill="white"/>
<path d="M446 126C446 134.837 453.163 142 462 142H446V126Z" fill="white"/>
<path d="M430 142C438.837 142 446 134.837 446 126V142H430Z" fill="white"/>
<path d="M466 154.5C464.067 154.5 462.5 156.067 462.5 158V154.5H466Z" fill="white"/>
<path d="M462.5 158C462.5 156.067 460.933 154.5 459 154.5H462.5V158Z" fill="white"/>
<path d="M462.5 151C462.5 152.933 464.067 154.5 466 154.5H462.5V151Z" fill="white"/>
<path d="M459 154.5C460.933 154.5 462.5 152.933 462.5 151V154.5H459Z" fill="white"/>
<path d="M419 154C415.134 154 412 157.134 412 161V154H419Z" fill="white"/>
<path d="M412 161C412 157.134 408.866 154 405 154H412V161Z" fill="white"/>
<path d="M412 147C412 150.866 415.134 154 419 154H412V147Z" fill="white"/>
<path d="M405 154C408.866 154 412 150.866 412 147V154H405Z" fill="white"/>
<defs>
<radialGradient id="paint0_radial_458_153" cx="0" cy="0" r="1" gradientUnits="userSpaceOnUse" gradientTransform="translate(496 137) rotate(96.5794) scale(423.288 361.666)">
<stop stop-color="#777777"/>
<stop offset="1" stop-opacity="0.99"/>
</radialGradient>
</defs>
</svg>
