<svg width="92" height="36" viewBox="0 0 92 36" fill="none" xmlns="http://www.w3.org/2000/svg">
<path d="M21 18L19.59 16.59L14 22.17V10H12V22.17L6.42 16.58L5 18L13 26L21 18Z" fill="#323232"/>
<path d="M37.24 25.28C40.34 25.28 42.34 23.62 42.34 21.12C42.34 18.62 40.42 17.66 37.84 17.08L36.96 16.86C35.16 16.44 34.16 15.94 34.16 14.58C34.16 13.22 35.22 12.44 37 12.44C38.82 12.44 40.1 13.22 40.1 15.1V15.88H42.04V15.1C42.04 12.2 39.88 10.72 37 10.72C34.14 10.72 32.22 12.2 32.22 14.62C32.22 17.04 33.9 18 36.5 18.6L37.38 18.82C39.24 19.26 40.4 19.74 40.4 21.16C40.4 22.56 39.3 23.56 37.24 23.56C35.2 23.56 33.82 22.54 33.82 20.4V19.92H31.88V20.4C31.88 23.6 34.14 25.28 37.24 25.28ZM49.7666 25.28C52.5866 25.28 54.1466 23.54 54.5866 21.52L52.7666 21.12C52.5266 22.56 51.6066 23.62 49.7866 23.62C47.9666 23.62 46.5866 22.34 46.5866 20.18V20C46.5866 17.84 47.9666 16.56 49.7866 16.56C51.6066 16.56 52.5266 17.68 52.7066 19.04L54.5066 18.66C54.1666 16.62 52.5866 14.9 49.7666 14.9C46.9066 14.9 44.7266 16.8 44.7266 19.96V20.2C44.7266 23.38 46.9066 25.28 49.7666 25.28ZM59.3611 25V19.14C59.3611 17.56 60.3011 16.82 61.6811 16.82H62.9411V15.14H61.7611C60.6611 15.14 59.9411 15.5 59.6211 16.34H59.3211V15.18H57.5011V25H59.3611ZM69.7858 25.28C72.7458 25.28 74.8458 23.32 74.8458 20.22V19.94C74.8458 16.84 72.7458 14.9 69.7858 14.9C66.8258 14.9 64.7258 16.84 64.7258 19.94V20.22C64.7258 23.32 66.8258 25.28 69.7858 25.28ZM69.7858 23.62C67.8858 23.62 66.5858 22.3 66.5858 20.18V20C66.5858 17.86 67.8658 16.56 69.7858 16.56C71.7058 16.56 72.9858 17.86 72.9858 20V20.18C72.9858 22.3 71.7058 23.62 69.7858 23.62ZM79.79 25V11H77.93V25H79.79ZM85.2095 25V11H83.3495V25H85.2095Z" fill="black"/>
</svg>
